<?xml version="1.0" encoding="UTF-8"?>
<svg xmlns="http://www.w3.org/2000/svg" xmlns:xlink="http://www.w3.org/1999/xlink" width="200px" height="45px" viewBox="0 0 200 45" version="1.1">
<g id="surface1">
<path style=" stroke:none;fill-rule:nonzero;fill:rgb(70.196078%,10.588235%,10.588235%);fill-opacity:1;" d="M 22.367188 0.015625 C 10.015625 0.015625 0 10.070312 0 22.445312 C 0 34.816406 10.015625 44.984375 22.367188 44.984375 C 34.695312 44.984375 44.734375 34.804688 44.734375 22.445312 C 44.734375 10.058594 34.71875 0.015625 22.367188 0.015625 Z M 22.367188 42.441406 C 11.363281 42.441406 2.4375 33.488281 2.4375 22.457031 C 2.4375 11.421875 11.378906 2.472656 22.367188 2.472656 C 33.355469 2.472656 42.28125 11.398438 42.296875 22.457031 C 42.296875 33.488281 33.367188 42.441406 22.367188 42.441406 Z M 22.367188 42.441406 "/>
<path style=" stroke:none;fill-rule:nonzero;fill:rgb(70.196078%,10.588235%,10.588235%);fill-opacity:1;" d="M 8.8125 26.230469 C 8.8125 36.410156 21.503906 41.925781 22.003906 42.164062 L 22.367188 42.289062 L 22.753906 42.050781 C 23.367188 41.824219 35.945312 36.171875 35.945312 26.492188 L 35.945312 8.113281 L 8.8125 8.113281 Z M 10.765625 26.242188 L 10.765625 20.738281 L 21.742188 20.738281 L 21.742188 22.15625 C 21.464844 22.09375 20.867188 21.953125 20.191406 22.054688 C 19.828125 22.054688 19.453125 22.179688 19.089844 22.179688 C 18.464844 22.179688 17.992188 22.304688 17.492188 22.304688 C 16.515625 22.304688 15.914062 22.304688 15.414062 22.304688 L 14.679688 22.304688 L 14.679688 34.691406 L 15.414062 34.691406 C 15.414062 34.691406 16.152344 34.691406 17.117188 34.691406 C 18.078125 34.691406 18.703125 34.566406 19.316406 34.566406 C 19.902344 34.441406 20.402344 34.441406 21.140625 34.441406 C 21.265625 34.441406 21.378906 34.554688 21.503906 34.679688 C 21.554688 34.742188 21.628906 34.84375 21.742188 34.941406 L 21.742188 39.96875 C 18.726562 38.402344 10.765625 33.589844 10.765625 26.242188 Z M 21.742188 33.175781 C 21.566406 33.125 21.355469 33.085938 21.140625 33.085938 C 20.292969 33.085938 19.804688 33.085938 19.214844 33.214844 C 18.617188 33.214844 18.003906 33.339844 17.140625 33.339844 C 16.890625 33.339844 16.515625 33.339844 16.277344 33.339844 L 16.277344 23.796875 C 16.652344 23.796875 17.015625 23.796875 17.628906 23.796875 C 18.089844 23.796875 18.714844 23.796875 19.328125 23.671875 C 19.691406 23.671875 20.066406 23.546875 20.429688 23.546875 C 21.054688 23.421875 21.667969 23.546875 21.667969 23.546875 C 21.691406 23.558594 21.714844 23.570312 21.742188 23.585938 Z M 23.203125 23.609375 C 23.242188 23.585938 23.304688 23.546875 23.367188 23.546875 C 23.367188 23.546875 23.992188 23.421875 24.605469 23.546875 C 24.96875 23.546875 25.34375 23.671875 25.703125 23.671875 C 26.304688 23.671875 26.917969 23.796875 27.40625 23.796875 C 27.894531 23.796875 28.394531 23.796875 28.753906 23.796875 L 28.753906 33.339844 C 28.503906 33.339844 28.253906 33.339844 27.894531 33.339844 C 27.054688 33.339844 26.429688 33.214844 25.816406 33.214844 C 25.191406 33.085938 24.578125 33.085938 23.84375 33.085938 C 23.605469 33.085938 23.390625 33.125 23.203125 33.1875 Z M 23.203125 23.597656 L 23.203125 23.535156 L 23.253906 23.546875 C 23.230469 23.570312 23.21875 23.585938 23.203125 23.597656 Z M 23.203125 39.96875 L 23.203125 34.894531 C 23.304688 34.832031 23.40625 34.753906 23.515625 34.679688 C 23.640625 34.441406 23.640625 34.441406 23.878906 34.441406 C 24.605469 34.441406 25.09375 34.566406 25.703125 34.566406 C 26.304688 34.566406 26.929688 34.691406 27.90625 34.691406 C 28.867188 34.691406 29.605469 34.691406 29.605469 34.691406 L 30.332031 34.691406 L 30.332031 22.304688 L 29.59375 22.304688 C 29.105469 22.304688 28.480469 22.304688 27.519531 22.304688 C 27.015625 22.304688 26.53125 22.304688 25.917969 22.179688 C 25.554688 22.179688 25.179688 22.054688 24.816406 22.054688 C 24.140625 22.054688 23.441406 22.144531 23.203125 22.167969 L 23.203125 20.738281 L 34.21875 20.738281 L 34.21875 26.605469 C 34.21875 33.515625 26.140625 38.402344 23.203125 39.96875 Z M 34.21875 19.132812 L 10.765625 19.132812 L 10.765625 10.058594 L 34.21875 10.058594 Z M 34.21875 19.132812 "/>
<path style=" stroke:none;fill-rule:nonzero;fill:rgb(70.196078%,10.588235%,10.588235%);fill-opacity:1;" d="M 14.078125 17.164062 C 14.929688 17.78125 16.402344 18.644531 16.402344 18.644531 L 16.640625 18.769531 L 17.003906 18.644531 C 17.117188 18.644531 18.464844 17.78125 19.441406 17.164062 C 20.179688 16.664062 20.542969 16.175781 20.542969 15.5625 C 20.542969 15.449219 20.542969 13.980469 20.542969 11.035156 L 20.542969 10.421875 L 12.839844 10.421875 L 12.839844 11.035156 C 12.839844 13.957031 12.839844 15.433594 12.839844 15.5625 C 12.976562 16.0625 13.339844 16.664062 14.078125 17.164062 Z M 18.589844 16.175781 C 17.992188 16.550781 17.015625 17.179688 16.515625 17.417969 C 16.015625 17.152344 15.152344 16.539062 14.539062 16.175781 C 14.164062 15.9375 13.925781 15.5625 13.925781 15.433594 C 13.925781 15.308594 13.925781 14.683594 13.925781 13.867188 L 19.203125 13.867188 C 19.203125 14.746094 19.203125 15.421875 19.203125 15.5625 C 19.203125 15.8125 18.828125 16.050781 18.589844 16.175781 Z M 13.941406 11.523438 L 13.941406 11.648438 L 19.203125 11.648438 C 19.203125 12.011719 19.203125 12.390625 19.203125 12.765625 L 13.925781 12.765625 C 13.925781 12.351562 13.925781 11.925781 13.941406 11.523438 Z M 13.941406 11.523438 "/>
<path style=" stroke:none;fill-rule:nonzero;fill:rgb(70.196078%,10.588235%,10.588235%);fill-opacity:1;" d="M 26.03125 17.164062 C 26.878906 17.78125 28.355469 18.644531 28.355469 18.644531 L 28.59375 18.769531 L 28.957031 18.644531 C 29.066406 18.644531 30.417969 17.78125 31.394531 17.164062 C 32.132812 16.664062 32.492188 16.175781 32.492188 15.5625 C 32.492188 15.449219 32.492188 13.980469 32.492188 11.035156 L 32.492188 10.421875 L 24.792969 10.421875 L 24.792969 11.035156 C 24.792969 13.957031 24.792969 15.433594 24.792969 15.5625 C 24.929688 16.0625 25.292969 16.664062 26.03125 17.164062 Z M 30.582031 16.175781 C 29.96875 16.550781 29.003906 17.179688 28.503906 17.417969 C 27.992188 17.152344 27.144531 16.539062 26.53125 16.175781 C 26.15625 15.9375 25.917969 15.5625 25.917969 15.433594 C 25.917969 15.398438 25.917969 15.324219 25.917969 15.210938 L 28.480469 13.378906 L 31.191406 15.148438 C 31.191406 15.359375 31.191406 15.511719 31.191406 15.5625 C 31.191406 15.8125 30.816406 16.050781 30.582031 16.175781 Z M 25.941406 11.523438 L 25.941406 11.648438 L 31.191406 11.648438 C 31.191406 12.390625 31.191406 13.191406 31.191406 13.867188 L 28.480469 12.023438 L 25.917969 13.832031 C 25.917969 13.117188 25.917969 12.277344 25.917969 11.523438 Z M 25.941406 11.523438 "/>
<path style=" stroke:none;fill-rule:nonzero;fill:rgb(70.196078%,10.588235%,10.588235%);fill-opacity:1;" d="M 17.101562 25.125 L 20.277344 25.125 L 20.277344 26.230469 L 17.101562 26.230469 Z M 17.101562 25.125 "/>
<path style=" stroke:none;fill-rule:nonzero;fill:rgb(70.196078%,10.588235%,10.588235%);fill-opacity:1;" d="M 17.101562 27.695312 L 20.277344 27.695312 L 20.277344 28.800781 L 17.101562 28.800781 Z M 17.101562 27.695312 "/>
<path style=" stroke:none;fill-rule:nonzero;fill:rgb(70.196078%,10.588235%,10.588235%);fill-opacity:1;" d="M 17.101562 30.292969 L 20.277344 30.292969 L 20.277344 31.394531 L 17.101562 31.394531 Z M 17.101562 30.292969 "/>
<path style=" stroke:none;fill-rule:nonzero;fill:rgb(70.196078%,10.588235%,10.588235%);fill-opacity:1;" d="M 24.191406 25.125 L 27.367188 25.125 L 27.367188 26.230469 L 24.191406 26.230469 Z M 24.191406 25.125 "/>
<path style=" stroke:none;fill-rule:nonzero;fill:rgb(70.196078%,10.588235%,10.588235%);fill-opacity:1;" d="M 24.191406 27.695312 L 27.367188 27.695312 L 27.367188 28.800781 L 24.191406 28.800781 Z M 24.191406 27.695312 "/>
<path style=" stroke:none;fill-rule:nonzero;fill:rgb(70.196078%,10.588235%,10.588235%);fill-opacity:1;" d="M 24.191406 30.292969 L 27.367188 30.292969 L 27.367188 31.394531 L 24.191406 31.394531 Z M 24.191406 30.292969 "/>
<path style=" stroke:none;fill-rule:nonzero;fill:rgb(70.196078%,10.588235%,10.588235%);fill-opacity:1;" d="M 56.4375 17.867188 C 56.898438 17.402344 57.449219 17.066406 58.0625 16.851562 C 58.671875 16.640625 59.421875 16.527344 60.296875 16.511719 C 61.472656 16.511719 62.375 16.664062 62.988281 16.964844 C 63.597656 17.265625 63.9375 17.71875 64 18.332031 L 64.011719 19.433594 L 64.601562 19.433594 C 64.636719 18.734375 64.699219 18.128906 64.800781 17.589844 C 64.863281 17.265625 64.976562 16.925781 65.113281 16.589844 C 64.960938 16.5625 64.535156 16.449219 63.835938 16.261719 C 63.148438 16.074219 62.5625 15.949219 62.074219 15.886719 C 61.597656 15.824219 61.074219 15.785156 60.511719 15.785156 C 58.125 15.785156 56.234375 16.4375 54.859375 17.742188 C 53.484375 19.046875 52.785156 20.6875 52.785156 22.667969 C 52.785156 23.445312 52.886719 24.171875 53.097656 24.824219 C 53.296875 25.476562 53.597656 26.09375 53.984375 26.644531 C 54.371094 27.195312 54.886719 27.710938 55.496094 28.160156 C 56.109375 28.613281 56.835938 28.964844 57.660156 29.199219 C 58.484375 29.4375 59.375 29.566406 60.335938 29.566406 C 61.148438 29.566406 61.910156 29.476562 62.597656 29.3125 C 63.300781 29.152344 64 28.886719 64.726562 28.511719 L 65.085938 27.648438 L 64.925781 27.445312 C 64.4375 27.796875 63.9375 28.046875 63.449219 28.210938 C 62.722656 28.449219 61.9375 28.5625 61.085938 28.5625 C 59.199219 28.5625 57.6875 27.984375 56.535156 26.84375 C 55.386719 25.691406 54.808594 24.1875 54.808594 22.292969 C 54.808594 21.214844 54.972656 20.324219 55.261719 19.609375 C 55.585938 18.921875 55.960938 18.332031 56.4375 17.867188 Z M 56.4375 17.867188 "/>
<path style=" stroke:none;fill-rule:nonzero;fill:rgb(70.196078%,10.588235%,10.588235%);fill-opacity:1;" d="M 70.636719 20.289062 C 69.25 20.289062 68.125 20.726562 67.238281 21.605469 C 66.351562 22.480469 65.914062 23.621094 65.914062 25.015625 C 65.914062 25.777344 66.050781 26.503906 66.335938 27.183594 C 66.5 27.570312 66.738281 27.949219 67.050781 28.3125 C 67.363281 28.675781 67.761719 28.988281 68.261719 29.226562 C 68.761719 29.464844 69.375 29.589844 70.089844 29.589844 C 71.011719 29.589844 71.863281 29.375 72.625 28.949219 C 73.390625 28.523438 73.988281 27.933594 74.414062 27.183594 C 74.839844 26.429688 75.050781 25.601562 75.050781 24.6875 C 75.050781 23.382812 74.640625 22.332031 73.828125 21.503906 C 73 20.699219 71.9375 20.289062 70.636719 20.289062 Z M 72.527344 28.074219 C 72.039062 28.648438 71.4375 28.925781 70.726562 28.925781 C 70.164062 28.925781 69.636719 28.738281 69.164062 28.375 C 68.6875 28.011719 68.3125 27.433594 68.0625 26.644531 C 67.8125 25.855469 67.6875 25.078125 67.6875 24.3125 C 67.6875 23.144531 67.925781 22.28125 68.398438 21.730469 C 68.875 21.175781 69.488281 20.902344 70.25 20.902344 C 70.789062 20.902344 71.289062 21.050781 71.726562 21.339844 C 72.175781 21.640625 72.539062 22.144531 72.824219 22.855469 C 73.113281 23.570312 73.265625 24.425781 73.265625 25.414062 C 73.25 26.617188 73.015625 27.507812 72.527344 28.074219 Z M 72.527344 28.074219 "/>
<path style=" stroke:none;fill-rule:nonzero;fill:rgb(70.196078%,10.588235%,10.588235%);fill-opacity:1;" d="M 81.101562 20.324219 C 80.839844 20.324219 80.589844 20.375 80.351562 20.476562 C 80.113281 20.574219 79.902344 20.699219 79.714844 20.863281 C 79.613281 20.953125 79.441406 21.164062 79.203125 21.476562 C 78.964844 21.792969 78.714844 22.117188 78.425781 22.445312 C 78.425781 21.652344 78.453125 21.066406 78.476562 20.675781 C 78.476562 20.625 78.488281 20.574219 78.488281 20.527344 C 78.488281 20.460938 78.476562 20.414062 78.453125 20.386719 C 78.425781 20.363281 78.390625 20.335938 78.351562 20.335938 C 78.316406 20.335938 78.226562 20.363281 78.101562 20.425781 C 77.527344 20.699219 76.613281 20.925781 75.363281 21.101562 L 75.363281 21.628906 C 76.078125 21.628906 76.476562 21.640625 76.578125 21.667969 C 76.675781 21.703125 76.75 21.753906 76.789062 21.816406 C 76.828125 21.878906 76.851562 22.105469 76.863281 22.46875 C 76.875 23.046875 76.890625 23.570312 76.890625 24.074219 L 76.890625 25.1875 C 76.890625 25.265625 76.875 26.128906 76.839844 27.796875 C 76.828125 28.097656 76.789062 28.324219 76.726562 28.472656 C 76.703125 28.550781 76.652344 28.613281 76.601562 28.648438 C 76.550781 28.6875 76.464844 28.726562 76.363281 28.738281 C 76.3125 28.75 75.925781 28.761719 75.226562 28.773438 L 75.226562 29.300781 C 75.976562 29.265625 76.738281 29.238281 77.527344 29.238281 C 78.289062 29.238281 79.226562 29.265625 80.316406 29.300781 L 80.316406 28.773438 C 79.503906 28.726562 78.988281 28.660156 78.816406 28.613281 C 78.726562 28.585938 78.652344 28.535156 78.613281 28.5 C 78.578125 28.449219 78.539062 28.375 78.515625 28.273438 C 78.488281 28.171875 78.476562 27.921875 78.464844 27.535156 C 78.441406 26.441406 78.414062 25.691406 78.414062 25.289062 L 78.414062 24.324219 C 78.414062 23.535156 78.578125 22.945312 78.914062 22.542969 C 79.253906 22.15625 79.652344 21.953125 80.128906 21.953125 C 80.414062 21.953125 80.652344 22.015625 80.839844 22.15625 C 81.027344 22.292969 81.191406 22.507812 81.339844 22.808594 L 81.753906 22.808594 C 81.765625 22.179688 81.816406 21.453125 81.914062 20.625 L 81.867188 20.5 C 81.617188 20.386719 81.351562 20.324219 81.101562 20.324219 Z M 81.101562 20.324219 "/>
<path style=" stroke:none;fill-rule:nonzero;fill:rgb(70.196078%,10.588235%,10.588235%);fill-opacity:1;" d="M 92.003906 28.625 C 91.941406 28.550781 91.890625 28.421875 91.855469 28.234375 C 91.816406 27.949219 91.792969 27.394531 91.792969 26.582031 L 91.792969 24.925781 C 91.792969 23.648438 91.765625 22.855469 91.730469 22.582031 C 91.65625 22.105469 91.503906 21.714844 91.28125 21.402344 C 91.054688 21.089844 90.71875 20.839844 90.265625 20.625 C 89.816406 20.425781 89.339844 20.3125 88.839844 20.3125 C 88.390625 20.3125 87.902344 20.398438 87.402344 20.589844 L 85.667969 22.066406 C 85.679688 21.339844 85.703125 20.875 85.714844 20.652344 C 85.714844 20.601562 85.730469 20.550781 85.730469 20.5 C 85.730469 20.4375 85.714844 20.386719 85.691406 20.363281 C 85.667969 20.335938 85.628906 20.3125 85.589844 20.3125 C 85.554688 20.3125 85.464844 20.335938 85.339844 20.398438 C 84.765625 20.675781 83.851562 20.902344 82.601562 21.078125 L 82.601562 21.605469 C 83.316406 21.605469 83.714844 21.617188 83.816406 21.640625 C 83.914062 21.679688 83.992188 21.730469 84.027344 21.792969 C 84.066406 21.855469 84.101562 22.078125 84.117188 22.445312 C 84.128906 23.019531 84.140625 23.546875 84.140625 24.046875 L 84.140625 25.164062 C 84.101562 26.871094 84.089844 27.757812 84.089844 27.847656 C 84.078125 28.160156 84.027344 28.386719 83.964844 28.511719 C 83.929688 28.574219 83.878906 28.625 83.804688 28.660156 C 83.726562 28.699219 83.628906 28.726562 83.503906 28.738281 L 82.617188 28.75 L 82.617188 29.277344 C 83.789062 29.238281 84.640625 29.214844 85.152344 29.214844 C 85.765625 29.214844 86.453125 29.238281 87.203125 29.277344 L 87.203125 28.75 C 86.554688 28.738281 86.214844 28.726562 86.179688 28.726562 C 86.078125 28.699219 85.992188 28.660156 85.941406 28.625 C 85.890625 28.585938 85.855469 28.535156 85.828125 28.472656 C 85.765625 28.335938 85.730469 28.097656 85.714844 27.796875 C 85.714844 27.671875 85.703125 26.792969 85.667969 25.175781 L 85.667969 24.046875 C 85.667969 23.359375 85.753906 22.882812 85.917969 22.582031 C 86.078125 22.292969 86.355469 22.042969 86.742188 21.816406 C 87.128906 21.589844 87.554688 21.492188 88.015625 21.492188 C 88.542969 21.492188 88.992188 21.617188 89.367188 21.867188 C 89.742188 22.117188 89.980469 22.457031 90.078125 22.871094 C 90.15625 23.171875 90.191406 23.808594 90.191406 24.789062 L 90.191406 26.355469 C 90.191406 26.757812 90.15625 27.734375 90.066406 29.265625 C 90.867188 29.226562 91.453125 29.199219 91.792969 29.199219 C 92.191406 29.199219 92.703125 29.226562 93.304688 29.265625 L 93.304688 28.738281 L 92.304688 28.710938 C 92.179688 28.738281 92.078125 28.6875 92.003906 28.625 Z M 92.003906 28.625 "/>
<path style=" stroke:none;fill-rule:nonzero;fill:rgb(70.196078%,10.588235%,10.588235%);fill-opacity:1;" d="M 99.707031 20.75 C 99.144531 20.4375 98.519531 20.273438 97.816406 20.273438 C 97.242188 20.273438 96.71875 20.375 96.230469 20.589844 C 95.855469 20.738281 95.480469 20.9375 95.105469 21.203125 C 94.730469 21.464844 94.441406 21.691406 94.269531 21.890625 C 94.019531 22.167969 93.792969 22.59375 93.605469 23.171875 C 93.40625 23.746094 93.316406 24.386719 93.316406 25.101562 C 93.316406 26.015625 93.503906 26.804688 93.867188 27.496094 C 94.230469 28.171875 94.742188 28.6875 95.40625 29.027344 C 96.066406 29.363281 96.804688 29.539062 97.628906 29.539062 C 98.042969 29.539062 98.445312 29.488281 98.820312 29.402344 C 99.195312 29.3125 99.53125 29.199219 99.820312 29.074219 C 100.019531 28.988281 100.332031 28.8125 100.757812 28.550781 L 101.054688 27.871094 L 100.90625 27.710938 C 100.355469 28.035156 99.894531 28.261719 99.519531 28.375 C 99.144531 28.5 98.769531 28.550781 98.394531 28.550781 C 97.832031 28.550781 97.292969 28.421875 96.78125 28.160156 C 96.269531 27.898438 95.855469 27.496094 95.566406 26.945312 C 95.269531 26.394531 95.117188 25.679688 95.105469 24.789062 L 98.09375 24.789062 C 98.769531 24.789062 99.429688 24.761719 100.105469 24.710938 C 100.457031 24.6875 100.855469 24.636719 101.304688 24.550781 C 101.332031 24.300781 101.34375 24.085938 101.34375 23.910156 C 101.34375 23.222656 101.21875 22.605469 100.957031 22.054688 C 100.679688 21.503906 100.269531 21.078125 99.707031 20.75 Z M 99.617188 24.097656 C 99.355469 24.125 98.820312 24.148438 97.992188 24.148438 C 97.644531 24.148438 97.003906 24.136719 96.082031 24.097656 C 95.59375 24.085938 95.269531 24.0625 95.09375 24.046875 C 95.09375 22.957031 95.316406 22.167969 95.742188 21.667969 C 96.167969 21.164062 96.730469 20.914062 97.441406 20.914062 C 98.105469 20.914062 98.644531 21.140625 99.03125 21.605469 C 99.429688 22.066406 99.632812 22.78125 99.632812 23.761719 C 99.632812 23.835938 99.617188 23.949219 99.617188 24.097656 Z M 99.617188 24.097656 "/>
<path style=" stroke:none;fill-rule:nonzero;fill:rgb(70.196078%,10.588235%,10.588235%);fill-opacity:1;" d="M 105.019531 28.636719 C 104.96875 28.597656 104.933594 28.550781 104.90625 28.488281 C 104.84375 28.347656 104.808594 28.121094 104.792969 27.808594 C 104.792969 27.683594 104.769531 26.804688 104.746094 25.1875 L 104.746094 20.351562 L 104.757812 18.894531 C 104.757812 18.117188 104.78125 17.164062 104.808594 16.050781 L 104.820312 15.734375 C 104.832031 15.660156 104.832031 15.597656 104.832031 15.546875 C 104.832031 15.496094 104.820312 15.460938 104.792969 15.433594 C 104.769531 15.410156 104.730469 15.398438 104.695312 15.398438 C 104.65625 15.398438 104.59375 15.410156 104.507812 15.449219 C 103.957031 15.710938 102.996094 15.925781 101.582031 16.101562 L 101.582031 16.652344 C 102.34375 16.652344 102.769531 16.675781 102.871094 16.714844 C 102.933594 16.738281 102.980469 16.777344 103.019531 16.839844 C 103.058594 16.925781 103.09375 17.339844 103.121094 18.09375 C 103.15625 19.195312 103.167969 20.273438 103.167969 21.300781 L 103.167969 25.164062 C 103.132812 26.871094 103.105469 27.757812 103.105469 27.835938 C 103.09375 28.148438 103.058594 28.375 102.980469 28.5 C 102.945312 28.5625 102.894531 28.613281 102.820312 28.648438 C 102.746094 28.6875 102.644531 28.710938 102.507812 28.726562 L 101.632812 28.738281 L 101.632812 29.277344 C 102.621094 29.226562 103.417969 29.199219 104.03125 29.199219 C 104.667969 29.199219 105.40625 29.226562 106.257812 29.277344 L 106.257812 28.738281 C 105.605469 28.726562 105.269531 28.710938 105.21875 28.710938 C 105.144531 28.710938 105.070312 28.675781 105.019531 28.636719 Z M 105.019531 28.636719 "/>
<path style=" stroke:none;fill-rule:nonzero;fill:rgb(70.196078%,10.588235%,10.588235%);fill-opacity:1;" d="M 110.558594 28.636719 C 110.507812 28.597656 110.472656 28.550781 110.445312 28.488281 C 110.382812 28.347656 110.34375 28.121094 110.332031 27.808594 C 110.332031 27.683594 110.308594 26.804688 110.28125 25.1875 L 110.28125 20.351562 L 110.296875 18.894531 C 110.296875 18.117188 110.320312 17.164062 110.34375 16.050781 L 110.359375 15.734375 C 110.371094 15.660156 110.371094 15.597656 110.371094 15.546875 C 110.371094 15.496094 110.359375 15.460938 110.332031 15.433594 C 110.308594 15.410156 110.269531 15.398438 110.234375 15.398438 C 110.195312 15.398438 110.132812 15.410156 110.046875 15.449219 C 109.496094 15.710938 108.53125 15.925781 107.121094 16.101562 L 107.121094 16.652344 C 107.882812 16.652344 108.308594 16.675781 108.40625 16.714844 C 108.46875 16.738281 108.519531 16.777344 108.558594 16.839844 C 108.59375 16.925781 108.632812 17.339844 108.65625 18.09375 C 108.695312 19.195312 108.707031 20.273438 108.707031 21.300781 L 108.707031 25.164062 C 108.671875 26.871094 108.644531 27.757812 108.644531 27.835938 C 108.632812 28.148438 108.59375 28.375 108.519531 28.5 C 108.484375 28.5625 108.433594 28.613281 108.359375 28.648438 C 108.28125 28.6875 108.183594 28.710938 108.046875 28.726562 L 107.171875 28.738281 L 107.171875 29.277344 C 108.15625 29.226562 108.957031 29.199219 109.570312 29.199219 C 110.207031 29.199219 110.945312 29.226562 111.796875 29.277344 L 111.796875 28.738281 C 111.144531 28.726562 110.808594 28.710938 110.757812 28.710938 C 110.683594 28.710938 110.609375 28.675781 110.558594 28.636719 Z M 110.558594 28.636719 "/>
<path style=" stroke:none;fill-rule:nonzero;fill:rgb(70.196078%,10.588235%,10.588235%);fill-opacity:1;" d="M 130.386719 16.050781 C 129.273438 16.101562 128.5 16.125 128.074219 16.125 C 127.597656 16.125 126.859375 16.101562 125.835938 16.050781 L 125.835938 16.652344 C 126.574219 16.664062 127.011719 16.703125 127.175781 16.75 C 127.335938 16.800781 127.449219 16.890625 127.523438 16.988281 C 127.597656 17.101562 127.636719 17.453125 127.648438 18.042969 C 127.675781 18.84375 127.6875 19.671875 127.6875 20.527344 L 127.6875 23.394531 C 127.6875 24.210938 127.660156 24.886719 127.597656 25.414062 C 127.535156 25.941406 127.449219 26.367188 127.3125 26.667969 C 127.175781 26.96875 126.972656 27.246094 126.710938 27.496094 C 126.4375 27.746094 126.035156 27.949219 125.5 28.121094 C 124.960938 28.296875 124.347656 28.375 123.648438 28.375 C 123.046875 28.375 122.511719 28.3125 122.035156 28.1875 C 121.546875 28.058594 121.171875 27.882812 120.886719 27.671875 C 120.511719 27.394531 120.246094 27.042969 120.074219 26.617188 C 119.898438 26.191406 119.824219 25.316406 119.824219 23.972656 L 119.824219 20.527344 C 119.835938 18.882812 119.847656 18.003906 119.859375 17.878906 C 119.871094 17.402344 119.921875 17.101562 120.011719 16.976562 C 120.058594 16.890625 120.171875 16.8125 120.335938 16.765625 C 120.496094 16.714844 120.949219 16.675781 121.671875 16.664062 L 121.671875 16.0625 C 120.808594 16.113281 119.933594 16.136719 119.046875 16.136719 C 118.183594 16.136719 117.234375 16.113281 116.234375 16.0625 L 116.234375 16.664062 C 116.972656 16.675781 117.421875 16.714844 117.570312 16.765625 C 117.734375 16.8125 117.847656 16.902344 117.921875 17.003906 C 117.996094 17.117188 118.035156 17.464844 118.058594 18.054688 C 118.070312 18.859375 118.085938 19.683594 118.085938 20.539062 L 118.085938 24.664062 C 118.085938 25.867188 118.171875 26.71875 118.347656 27.234375 C 118.484375 27.621094 118.734375 27.996094 119.097656 28.359375 C 119.460938 28.738281 119.996094 29.027344 120.699219 29.25 C 121.398438 29.476562 122.222656 29.589844 123.1875 29.589844 C 124 29.589844 124.75 29.488281 125.421875 29.300781 C 126.097656 29.113281 126.648438 28.835938 127.074219 28.488281 C 127.648438 28.023438 128.035156 27.484375 128.25 26.871094 C 128.460938 26.253906 128.574219 25.1875 128.574219 23.648438 L 128.574219 20.527344 C 128.585938 18.882812 128.597656 18.003906 128.613281 17.878906 C 128.625 17.402344 128.675781 17.101562 128.75 16.976562 C 128.8125 16.890625 128.925781 16.8125 129.074219 16.765625 C 129.238281 16.714844 129.675781 16.675781 130.410156 16.664062 L 130.410156 16.050781 Z M 130.386719 16.050781 "/>
<path style=" stroke:none;fill-rule:nonzero;fill:rgb(70.196078%,10.588235%,10.588235%);fill-opacity:1;" d="M 138.988281 28.625 C 138.925781 28.550781 138.875 28.421875 138.839844 28.234375 C 138.800781 27.949219 138.777344 27.394531 138.777344 26.582031 L 138.777344 24.925781 C 138.777344 23.648438 138.75 22.855469 138.714844 22.582031 C 138.636719 22.105469 138.488281 21.714844 138.261719 21.402344 C 138.039062 21.089844 137.699219 20.839844 137.25 20.625 C 136.800781 20.425781 136.324219 20.3125 135.824219 20.3125 C 135.375 20.3125 134.886719 20.398438 134.386719 20.589844 L 132.648438 22.066406 C 132.664062 21.339844 132.6875 20.875 132.699219 20.652344 C 132.699219 20.601562 132.710938 20.550781 132.710938 20.5 C 132.710938 20.4375 132.699219 20.386719 132.675781 20.363281 C 132.648438 20.335938 132.613281 20.3125 132.574219 20.3125 C 132.539062 20.3125 132.449219 20.335938 132.324219 20.398438 C 131.75 20.675781 130.835938 20.902344 129.585938 21.078125 L 129.585938 21.605469 C 130.300781 21.605469 130.699219 21.617188 130.800781 21.640625 C 130.898438 21.679688 130.972656 21.730469 131.011719 21.792969 C 131.050781 21.855469 131.085938 22.078125 131.097656 22.445312 C 131.113281 23.019531 131.125 23.546875 131.125 24.046875 L 131.125 25.164062 C 131.085938 26.871094 131.074219 27.757812 131.074219 27.847656 C 131.0625 28.160156 131.011719 28.386719 130.949219 28.511719 C 130.910156 28.574219 130.863281 28.625 130.785156 28.660156 C 130.710938 28.699219 130.613281 28.726562 130.488281 28.738281 L 129.597656 28.75 L 129.597656 29.277344 C 130.773438 29.238281 131.625 29.214844 132.136719 29.214844 C 132.75 29.214844 133.4375 29.238281 134.1875 29.277344 L 134.1875 28.75 C 133.539062 28.738281 133.199219 28.726562 133.164062 28.726562 C 133.0625 28.699219 132.976562 28.660156 132.925781 28.625 C 132.875 28.585938 132.835938 28.535156 132.8125 28.472656 C 132.75 28.335938 132.710938 28.097656 132.699219 27.796875 C 132.699219 27.671875 132.6875 26.792969 132.648438 25.175781 L 132.648438 24.046875 C 132.648438 23.359375 132.738281 22.882812 132.898438 22.582031 C 133.0625 22.28125 133.335938 22.042969 133.726562 21.816406 C 134.113281 21.589844 134.539062 21.492188 135 21.492188 C 135.527344 21.492188 135.976562 21.617188 136.351562 21.867188 C 136.726562 22.117188 136.964844 22.457031 137.0625 22.871094 C 137.136719 23.171875 137.175781 23.808594 137.175781 24.789062 L 137.175781 26.355469 C 137.175781 26.757812 137.136719 27.734375 137.050781 29.265625 C 137.851562 29.226562 138.4375 29.199219 138.777344 29.199219 C 139.175781 29.199219 139.6875 29.226562 140.289062 29.265625 L 140.289062 28.738281 L 139.289062 28.710938 C 139.164062 28.738281 139.0625 28.6875 138.988281 28.625 Z M 138.988281 28.625 "/>
<path style=" stroke:none;fill-rule:nonzero;fill:rgb(70.196078%,10.588235%,10.588235%);fill-opacity:1;" d="M 142.839844 18.269531 C 143.125 18.269531 143.363281 18.167969 143.578125 17.957031 C 143.789062 17.742188 143.890625 17.503906 143.890625 17.214844 C 143.890625 16.925781 143.789062 16.675781 143.589844 16.464844 C 143.390625 16.261719 143.140625 16.148438 142.851562 16.148438 C 142.5625 16.148438 142.3125 16.25 142.101562 16.464844 C 141.902344 16.664062 141.789062 16.914062 141.789062 17.214844 C 141.789062 17.503906 141.890625 17.742188 142.101562 17.957031 C 142.289062 18.167969 142.539062 18.269531 142.839844 18.269531 Z M 142.839844 18.269531 "/>
<path style=" stroke:none;fill-rule:nonzero;fill:rgb(70.196078%,10.588235%,10.588235%);fill-opacity:1;" d="M 144.003906 28.660156 C 143.953125 28.625 143.914062 28.574219 143.878906 28.511719 C 143.816406 28.375 143.777344 28.148438 143.777344 27.835938 C 143.765625 27.710938 143.753906 26.832031 143.726562 25.214844 L 143.726562 23.523438 C 143.726562 22.820312 143.753906 21.804688 143.800781 20.488281 L 143.601562 20.335938 C 142.789062 20.726562 141.777344 20.988281 140.578125 21.113281 L 140.578125 21.640625 C 141.3125 21.640625 141.726562 21.667969 141.8125 21.714844 C 141.914062 21.765625 141.976562 21.828125 142.015625 21.929688 C 142.078125 22.105469 142.101562 22.65625 142.101562 23.585938 L 142.101562 25.214844 C 142.0625 26.917969 142.050781 27.808594 142.050781 27.882812 C 142.039062 28.199219 141.988281 28.421875 141.925781 28.550781 C 141.890625 28.613281 141.839844 28.660156 141.765625 28.699219 C 141.6875 28.738281 141.589844 28.761719 141.464844 28.773438 L 140.578125 28.789062 L 140.578125 29.3125 C 141.703125 29.277344 142.515625 29.25 143.015625 29.25 C 143.578125 29.25 144.328125 29.277344 145.277344 29.3125 L 145.277344 28.789062 C 144.628906 28.773438 144.277344 28.761719 144.238281 28.761719 C 144.128906 28.738281 144.050781 28.699219 144.003906 28.660156 Z M 144.003906 28.660156 "/>
<path style=" stroke:none;fill-rule:nonzero;fill:rgb(70.196078%,10.588235%,10.588235%);fill-opacity:1;" d="M 151.464844 20.539062 L 151.464844 21.101562 C 152.117188 21.113281 152.503906 21.164062 152.652344 21.253906 C 152.730469 21.289062 152.777344 21.367188 152.777344 21.476562 C 152.777344 21.554688 152.765625 21.652344 152.742188 21.753906 C 152.640625 22.144531 152.441406 22.707031 152.140625 23.445312 C 151.628906 24.726562 151.351562 25.414062 151.289062 25.539062 L 150.367188 27.660156 C 150.253906 27.410156 150.039062 26.917969 149.742188 26.179688 L 149.464844 25.539062 L 148.328125 22.707031 C 148.078125 22.09375 147.953125 21.691406 147.953125 21.503906 C 147.953125 21.390625 148.015625 21.289062 148.128906 21.226562 C 148.242188 21.164062 148.640625 21.113281 149.304688 21.101562 L 149.304688 20.539062 C 148.402344 20.574219 147.691406 20.601562 147.164062 20.601562 C 146.691406 20.601562 145.941406 20.574219 144.914062 20.539062 L 144.914062 21.101562 C 145.289062 21.113281 145.515625 21.128906 145.601562 21.152344 C 145.703125 21.175781 145.800781 21.238281 145.890625 21.328125 C 145.976562 21.414062 146.078125 21.605469 146.203125 21.890625 L 148.101562 26.34375 L 148.867188 28.121094 C 148.953125 28.335938 149.128906 28.761719 149.367188 29.402344 L 150.328125 29.402344 C 151.242188 27.207031 151.777344 25.953125 151.941406 25.601562 L 152.828125 23.699219 C 153.417969 22.507812 153.742188 21.828125 153.828125 21.679688 C 153.953125 21.453125 154.078125 21.300781 154.203125 21.238281 C 154.328125 21.164062 154.589844 21.128906 154.964844 21.101562 L 154.964844 20.539062 C 154.003906 20.574219 153.402344 20.601562 153.191406 20.601562 C 152.980469 20.601562 152.390625 20.589844 151.464844 20.539062 Z M 151.464844 20.539062 "/>
<path style=" stroke:none;fill-rule:nonzero;fill:rgb(70.196078%,10.588235%,10.588235%);fill-opacity:1;" d="M 161.542969 20.75 C 160.980469 20.4375 160.355469 20.273438 159.65625 20.273438 C 159.078125 20.273438 158.554688 20.375 158.066406 20.589844 C 157.691406 20.738281 157.316406 20.9375 156.941406 21.203125 C 156.566406 21.464844 156.28125 21.691406 156.105469 21.890625 C 155.855469 22.167969 155.628906 22.59375 155.441406 23.171875 C 155.242188 23.746094 155.152344 24.386719 155.152344 25.101562 C 155.152344 26.015625 155.339844 26.804688 155.703125 27.496094 C 156.066406 28.171875 156.59375 28.6875 157.242188 29.027344 C 157.90625 29.363281 158.640625 29.539062 159.46875 29.539062 C 159.878906 29.539062 160.28125 29.488281 160.65625 29.402344 C 161.03125 29.3125 161.367188 29.199219 161.65625 29.074219 C 161.855469 28.988281 162.167969 28.8125 162.59375 28.550781 L 162.894531 27.871094 L 162.742188 27.710938 C 162.191406 28.035156 161.730469 28.261719 161.355469 28.375 C 160.980469 28.5 160.605469 28.550781 160.230469 28.550781 C 159.667969 28.550781 159.128906 28.421875 158.617188 28.160156 C 158.105469 27.898438 157.691406 27.496094 157.40625 26.945312 C 157.105469 26.394531 156.953125 25.679688 156.941406 24.789062 L 159.929688 24.789062 C 160.605469 24.789062 161.269531 24.761719 161.941406 24.710938 C 162.292969 24.6875 162.691406 24.636719 163.144531 24.550781 C 163.167969 24.300781 163.179688 24.085938 163.179688 23.910156 C 163.179688 23.222656 163.054688 22.605469 162.792969 22.054688 C 162.519531 21.503906 162.105469 21.078125 161.542969 20.75 Z M 161.457031 24.097656 C 161.191406 24.125 160.65625 24.148438 159.828125 24.148438 C 159.480469 24.148438 158.84375 24.136719 157.917969 24.097656 C 157.429688 24.085938 157.105469 24.0625 156.929688 24.046875 C 156.929688 22.957031 157.15625 22.167969 157.578125 21.667969 C 158.003906 21.164062 158.566406 20.914062 159.28125 20.914062 C 159.941406 20.914062 160.480469 21.140625 160.867188 21.605469 C 161.269531 22.066406 161.46875 22.78125 161.46875 23.761719 C 161.46875 23.835938 161.46875 23.949219 161.457031 24.097656 Z M 161.457031 24.097656 "/>
<path style=" stroke:none;fill-rule:nonzero;fill:rgb(70.196078%,10.588235%,10.588235%);fill-opacity:1;" d="M 169.757812 20.324219 C 169.496094 20.324219 169.246094 20.375 169.007812 20.476562 C 168.769531 20.574219 168.554688 20.699219 168.367188 20.863281 C 168.269531 20.953125 168.09375 21.164062 167.855469 21.476562 C 167.617188 21.792969 167.367188 22.117188 167.082031 22.445312 C 167.082031 21.652344 167.105469 21.066406 167.132812 20.675781 C 167.132812 20.625 167.144531 20.574219 167.144531 20.527344 C 167.144531 20.460938 167.132812 20.414062 167.105469 20.386719 C 167.082031 20.363281 167.042969 20.335938 167.007812 20.335938 C 166.96875 20.335938 166.882812 20.363281 166.757812 20.425781 C 166.179688 20.699219 165.269531 20.925781 164.019531 21.101562 L 164.019531 21.628906 C 164.730469 21.628906 165.132812 21.640625 165.230469 21.667969 C 165.332031 21.703125 165.40625 21.753906 165.445312 21.816406 C 165.480469 21.878906 165.507812 22.105469 165.519531 22.46875 C 165.53125 23.046875 165.542969 23.570312 165.542969 24.074219 L 165.542969 25.1875 C 165.542969 25.265625 165.53125 26.128906 165.492188 27.796875 C 165.480469 28.097656 165.445312 28.324219 165.382812 28.472656 C 165.355469 28.550781 165.304688 28.613281 165.257812 28.648438 C 165.207031 28.6875 165.117188 28.726562 165.019531 28.738281 C 164.96875 28.75 164.582031 28.761719 163.878906 28.773438 L 163.878906 29.300781 C 164.632812 29.265625 165.394531 29.238281 166.179688 29.238281 C 166.945312 29.238281 167.882812 29.265625 168.96875 29.300781 L 168.96875 28.773438 C 168.15625 28.726562 167.644531 28.660156 167.457031 28.613281 C 167.367188 28.585938 167.292969 28.535156 167.257812 28.5 C 167.21875 28.449219 167.179688 28.375 167.15625 28.273438 C 167.132812 28.171875 167.117188 27.921875 167.105469 27.535156 C 167.082031 26.441406 167.054688 25.691406 167.054688 25.289062 L 167.054688 24.324219 C 167.054688 23.535156 167.21875 22.945312 167.554688 22.542969 C 167.894531 22.15625 168.292969 21.953125 168.769531 21.953125 C 169.058594 21.953125 169.292969 22.015625 169.480469 22.15625 C 169.667969 22.292969 169.832031 22.507812 169.980469 22.808594 L 170.394531 22.808594 C 170.40625 22.179688 170.457031 21.453125 170.558594 20.625 L 170.507812 20.5 C 170.269531 20.386719 170.007812 20.324219 169.757812 20.324219 Z M 169.757812 20.324219 "/>
<path style=" stroke:none;fill-rule:nonzero;fill:rgb(70.196078%,10.588235%,10.588235%);fill-opacity:1;" d="M 176.734375 24.675781 C 176.433594 24.539062 175.894531 24.363281 175.121094 24.160156 L 173.582031 23.785156 C 173.296875 23.699219 173.070312 23.597656 172.90625 23.496094 C 172.746094 23.382812 172.621094 23.246094 172.519531 23.070312 C 172.417969 22.894531 172.371094 22.695312 172.371094 22.445312 C 172.371094 22.003906 172.53125 21.628906 172.871094 21.300781 C 173.207031 20.976562 173.644531 20.8125 174.183594 20.8125 C 174.570312 20.8125 174.894531 20.863281 175.15625 20.964844 C 175.421875 21.066406 175.632812 21.175781 175.808594 21.300781 C 175.96875 21.429688 176.09375 21.554688 176.15625 21.667969 C 176.21875 21.777344 176.28125 21.90625 176.320312 22.042969 C 176.359375 22.179688 176.394531 22.480469 176.433594 22.933594 L 176.957031 22.933594 C 176.96875 22.21875 177.007812 21.515625 177.046875 20.828125 C 176.71875 20.664062 176.308594 20.527344 175.796875 20.425781 C 175.28125 20.3125 174.832031 20.261719 174.433594 20.261719 C 173.78125 20.261719 173.183594 20.386719 172.632812 20.652344 C 172.082031 20.914062 171.683594 21.238281 171.417969 21.652344 C 171.15625 22.066406 171.03125 22.519531 171.03125 23.007812 C 171.03125 23.347656 171.09375 23.660156 171.207031 23.933594 C 171.332031 24.222656 171.496094 24.460938 171.695312 24.648438 C 171.894531 24.839844 172.167969 25 172.519531 25.125 C 172.746094 25.203125 173.257812 25.339844 174.046875 25.515625 C 174.832031 25.691406 175.34375 25.839844 175.582031 25.953125 C 175.820312 26.066406 176.007812 26.21875 176.132812 26.417969 C 176.257812 26.617188 176.320312 26.84375 176.320312 27.105469 C 176.320312 27.695312 176.121094 28.148438 175.707031 28.488281 C 175.308594 28.824219 174.78125 28.988281 174.144531 28.988281 C 173.757812 28.988281 173.46875 28.976562 173.28125 28.949219 C 173.09375 28.925781 172.90625 28.875 172.71875 28.800781 C 172.53125 28.726562 172.371094 28.613281 172.207031 28.472656 C 172.058594 28.335938 171.933594 28.160156 171.855469 27.960938 C 171.78125 27.757812 171.730469 27.546875 171.695312 27.34375 C 171.667969 27.132812 171.644531 26.84375 171.644531 26.492188 L 171.082031 26.492188 C 171.070312 27.296875 171.058594 27.835938 171.03125 28.085938 C 171.019531 28.335938 170.980469 28.597656 170.917969 28.863281 C 170.90625 28.925781 170.90625 28.976562 170.90625 29.027344 C 170.90625 29.0625 170.917969 29.101562 170.945312 29.113281 C 170.980469 29.152344 171.246094 29.214844 171.730469 29.3125 C 172.621094 29.476562 173.332031 29.550781 173.859375 29.550781 C 175.019531 29.550781 175.945312 29.238281 176.632812 28.613281 C 177.320312 27.984375 177.671875 27.257812 177.671875 26.417969 C 177.671875 25.992188 177.582031 25.628906 177.394531 25.328125 C 177.269531 25.039062 177.03125 24.8125 176.734375 24.675781 Z M 176.734375 24.675781 "/>
<path style=" stroke:none;fill-rule:nonzero;fill:rgb(70.196078%,10.588235%,10.588235%);fill-opacity:1;" d="M 181.019531 18.269531 C 181.308594 18.269531 181.546875 18.167969 181.757812 17.957031 C 181.972656 17.742188 182.070312 17.503906 182.070312 17.214844 C 182.070312 16.925781 181.972656 16.675781 181.773438 16.464844 C 181.570312 16.261719 181.320312 16.148438 181.035156 16.148438 C 180.746094 16.148438 180.496094 16.25 180.285156 16.464844 C 180.082031 16.664062 179.972656 16.914062 179.972656 17.214844 C 179.972656 17.503906 180.070312 17.742188 180.285156 17.957031 C 180.472656 18.167969 180.722656 18.269531 181.019531 18.269531 Z M 181.019531 18.269531 "/>
<path style=" stroke:none;fill-rule:nonzero;fill:rgb(70.196078%,10.588235%,10.588235%);fill-opacity:1;" d="M 182.183594 28.660156 C 182.132812 28.625 182.097656 28.574219 182.058594 28.511719 C 181.996094 28.375 181.960938 28.148438 181.960938 27.835938 C 181.960938 27.710938 181.933594 26.832031 181.910156 25.214844 L 181.910156 23.523438 C 181.910156 22.820312 181.933594 21.804688 181.984375 20.488281 L 181.785156 20.335938 C 180.972656 20.726562 179.957031 20.988281 178.757812 21.113281 L 178.757812 21.640625 C 179.496094 21.640625 179.910156 21.667969 179.996094 21.714844 C 180.097656 21.765625 180.160156 21.828125 180.195312 21.929688 C 180.257812 22.105469 180.285156 22.65625 180.285156 23.585938 L 180.285156 25.214844 C 180.246094 26.917969 180.234375 27.808594 180.234375 27.882812 C 180.222656 28.199219 180.171875 28.421875 180.109375 28.550781 C 180.070312 28.613281 180.019531 28.660156 179.945312 28.699219 C 179.871094 28.738281 179.769531 28.761719 179.644531 28.773438 L 178.757812 28.789062 L 178.757812 29.3125 C 179.882812 29.277344 180.695312 29.25 181.195312 29.25 C 181.757812 29.25 182.507812 29.277344 183.460938 29.3125 L 183.460938 28.789062 C 182.808594 28.773438 182.460938 28.761719 182.421875 28.761719 C 182.308594 28.738281 182.234375 28.699219 182.183594 28.660156 Z M 182.183594 28.660156 "/>
<path style=" stroke:none;fill-rule:nonzero;fill:rgb(70.196078%,10.588235%,10.588235%);fill-opacity:1;" d="M 186.796875 21.90625 C 187.386719 21.90625 187.835938 21.890625 188.160156 21.890625 C 188.484375 21.890625 188.847656 21.890625 189.234375 21.90625 L 189.433594 21.039062 L 189.371094 20.976562 C 189.210938 20.988281 188.972656 21 188.648438 21.015625 C 188.058594 21.027344 187.746094 21.027344 187.683594 21.027344 C 187.585938 21.027344 187.285156 21.027344 186.796875 21.015625 C 186.871094 19.257812 186.949219 18.117188 187.023438 17.605469 L 186.796875 17.417969 C 186.398438 17.667969 185.871094 17.90625 185.222656 18.128906 C 185.257812 18.542969 185.273438 19.484375 185.273438 20.964844 C 184.910156 21.152344 184.410156 21.367188 183.796875 21.605469 L 183.796875 21.992188 C 184.183594 21.96875 184.535156 21.941406 184.835938 21.941406 L 185.210938 21.941406 L 185.210938 25.816406 C 185.210938 25.929688 185.210938 26.042969 185.195312 26.140625 C 185.183594 26.644531 185.171875 27.105469 185.160156 27.535156 C 185.183594 27.972656 185.257812 28.296875 185.359375 28.5 C 185.460938 28.699219 185.597656 28.875 185.761719 29.011719 C 185.921875 29.152344 186.097656 29.25 186.296875 29.328125 C 186.496094 29.402344 186.761719 29.4375 187.085938 29.4375 C 187.347656 29.4375 187.585938 29.425781 187.796875 29.402344 C 187.996094 29.375 188.222656 29.3125 188.460938 29.226562 C 188.734375 28.976562 189.011719 28.738281 189.308594 28.511719 L 189.199219 28.148438 C 188.960938 28.234375 188.761719 28.285156 188.597656 28.3125 C 188.433594 28.335938 188.234375 28.347656 187.984375 28.347656 C 187.648438 28.3125 187.410156 28.25 187.273438 28.160156 C 187.136719 28.085938 187.023438 27.972656 186.933594 27.835938 C 186.847656 27.695312 186.785156 27.546875 186.761719 27.359375 C 186.734375 27.183594 186.722656 26.617188 186.746094 25.703125 Z M 186.796875 21.90625 "/>
<path style=" stroke:none;fill-rule:nonzero;fill:rgb(70.196078%,10.588235%,10.588235%);fill-opacity:1;" d="M 198.226562 20.601562 C 197.675781 20.601562 197.035156 20.574219 196.324219 20.539062 L 196.324219 21.101562 C 196.972656 21.164062 197.347656 21.226562 197.449219 21.289062 C 197.550781 21.351562 197.597656 21.453125 197.597656 21.566406 C 197.597656 21.640625 197.585938 21.730469 197.5625 21.828125 C 197.488281 22.117188 197.199219 22.871094 196.710938 24.085938 C 196.222656 25.300781 195.886719 26.128906 195.699219 26.566406 L 195.210938 27.671875 C 194.972656 27.132812 194.675781 26.429688 194.324219 25.554688 L 193.734375 24.097656 C 193.523438 23.558594 193.285156 22.90625 193.046875 22.144531 C 192.949219 21.828125 192.886719 21.628906 192.886719 21.527344 C 192.886719 21.367188 192.960938 21.253906 193.125 21.191406 C 193.210938 21.152344 193.585938 21.113281 194.222656 21.066406 L 194.222656 20.539062 C 193.546875 20.574219 192.847656 20.601562 192.109375 20.601562 C 191.359375 20.601562 190.597656 20.574219 189.835938 20.539062 L 189.835938 21.066406 C 190.273438 21.113281 190.5625 21.175781 190.6875 21.253906 C 190.8125 21.328125 190.9375 21.476562 191.046875 21.714844 C 191.324219 22.304688 191.6875 23.132812 192.125 24.238281 L 193.597656 27.910156 C 193.875 28.613281 194.113281 29.238281 194.3125 29.789062 C 194.050781 30.480469 193.761719 31.15625 193.421875 31.820312 C 193.210938 32.261719 193.023438 32.574219 192.859375 32.75 C 192.699219 32.925781 192.535156 33.0625 192.347656 33.148438 C 192.160156 33.238281 191.972656 33.277344 191.785156 33.277344 C 191.597656 33.277344 191.460938 33.261719 191.359375 33.226562 C 191.261719 33.199219 191.171875 33.148438 191.085938 33.085938 C 191 33.023438 190.898438 32.949219 190.785156 32.847656 L 190.5625 32.847656 L 190.085938 34.292969 C 190.285156 34.402344 190.472656 34.480469 190.636719 34.53125 C 190.796875 34.578125 190.984375 34.605469 191.1875 34.605469 C 191.609375 34.605469 192 34.515625 192.347656 34.328125 C 192.699219 34.152344 193.011719 33.890625 193.261719 33.539062 C 193.511719 33.1875 193.8125 32.609375 194.160156 31.796875 L 196.3125 26.769531 C 197.261719 24.6875 197.910156 23.285156 198.261719 22.570312 C 198.613281 21.855469 198.875 21.441406 199.050781 21.316406 C 199.226562 21.191406 199.460938 21.128906 199.789062 21.113281 L 199.875 20.550781 C 199.324219 20.589844 198.773438 20.601562 198.226562 20.601562 Z M 198.226562 20.601562 "/>
</g>
</svg>
