<?xml version="1.0" encoding="UTF-8"?>
<svg xmlns="http://www.w3.org/2000/svg" xmlns:xlink="http://www.w3.org/1999/xlink" width="200px" height="200px" viewBox="0 0 200 200" version="1.1">
<g id="surface1">
<path style=" stroke:none;fill-rule:nonzero;fill:rgb(70.196078%,10.588235%,10.588235%);fill-opacity:1;" d="M 15.378906 100.722656 C 19.566406 100.722656 22.078125 98.058594 22.382812 93.339844 C 22.382812 92.5 22.382812 91.359375 22.230469 90.140625 L 22.230469 89.835938 L 18.730469 89.835938 L 19.03125 90.519531 C 19.1875 91.054688 19.335938 92.195312 19.335938 93.1875 C 19.1875 95.546875 17.359375 97.070312 14.84375 96.839844 C 12.179688 96.6875 10.65625 95.015625 10.65625 92.652344 C 10.65625 91.816406 10.8125 90.980469 11.496094 90.140625 L 12.03125 89.453125 L 8.679688 88.921875 L 8.527344 89.226562 C 7.992188 90.21875 7.84375 91.4375 7.6875 92.425781 C 7.386719 97.296875 10.050781 100.496094 14.921875 100.648438 C 15 100.722656 15.152344 100.722656 15.378906 100.722656 Z M 15.378906 100.722656 "/>
<path style=" stroke:none;fill-rule:nonzero;fill:rgb(70.196078%,10.588235%,10.588235%);fill-opacity:1;" d="M 15.988281 84.355469 C 16.976562 84.660156 17.8125 84.660156 18.652344 84.660156 C 21.851562 84.660156 24.210938 82.832031 25.199219 79.636719 C 25.734375 77.65625 25.503906 75.980469 24.667969 74.304688 C 23.675781 72.628906 22 71.488281 19.796875 70.804688 C 18.957031 70.5 17.96875 70.5 17.28125 70.5 C 14.085938 70.5 11.722656 72.328125 10.734375 75.523438 C 9.515625 79.636719 11.496094 82.984375 15.988281 84.355469 Z M 13.703125 76.4375 C 14.234375 74.609375 15.683594 74.230469 16.902344 74.230469 C 17.433594 74.230469 18.042969 74.382812 18.730469 74.53125 C 20.25 75.066406 21.390625 75.675781 21.925781 76.742188 C 22.230469 77.425781 22.457031 78.109375 22.078125 78.949219 C 21.546875 80.777344 20.097656 81.15625 18.878906 81.15625 C 18.195312 81.15625 17.738281 81.003906 17.054688 80.851562 C 15 80.167969 13.019531 78.644531 13.703125 76.4375 Z M 13.703125 76.4375 "/>
<path style=" stroke:none;fill-rule:nonzero;fill:rgb(70.196078%,10.588235%,10.588235%);fill-opacity:1;" d="M 30.453125 65.550781 L 25.578125 62.886719 L 25.734375 62.582031 C 26.265625 61.742188 26.570312 61.742188 27.253906 61.894531 L 32.128906 62.582031 L 33.953125 59.078125 L 27.5625 58.394531 C 27.027344 58.394531 26.722656 58.394531 26.417969 58.394531 C 26.417969 57.023438 25.734375 55.730469 24.4375 55.042969 C 23.753906 54.738281 23.066406 54.511719 22.457031 54.511719 C 20.097656 54.511719 18.957031 56.871094 17.738281 59.003906 L 15.988281 62.199219 L 28.703125 69.050781 Z M 22.917969 61.058594 L 22.765625 61.363281 L 20.402344 60.21875 L 20.554688 59.917969 C 21.089844 58.925781 21.699219 57.9375 22.765625 58.394531 C 23.066406 58.546875 23.296875 58.699219 23.449219 59.078125 C 23.523438 59.6875 23.21875 60.527344 22.917969 61.058594 Z M 22.917969 61.058594 "/>
<path style=" stroke:none;fill-rule:nonzero;fill:rgb(70.196078%,10.588235%,10.588235%);fill-opacity:1;" d="M 38.296875 52.835938 L 31.746094 47.507812 L 41.109375 49.640625 L 43.625 46.441406 L 32.585938 37.230469 L 30.222656 39.96875 L 36.921875 45.453125 L 27.5625 43.320312 L 24.894531 46.441406 L 36.085938 55.652344 Z M 38.296875 52.835938 "/>
<path style=" stroke:none;fill-rule:nonzero;fill:rgb(70.196078%,10.588235%,10.588235%);fill-opacity:1;" d="M 54.511719 37.230469 L 52.53125 34.945312 L 48.496094 38.066406 L 46.667969 35.933594 L 50.324219 32.890625 L 48.34375 30.53125 L 44.6875 33.574219 L 43.320312 31.746094 L 47.355469 28.550781 L 45.296875 26.035156 L 38.445312 31.59375 L 47.507812 42.785156 Z M 54.511719 37.230469 "/>
<path style=" stroke:none;fill-rule:nonzero;fill:rgb(70.196078%,10.588235%,10.588235%);fill-opacity:1;" d="M 66.464844 30.074219 L 64.941406 27.40625 L 60.375 29.921875 L 54.890625 20.023438 L 51.695312 21.851562 L 58.699219 34.410156 Z M 66.464844 30.074219 "/>
<path style=" stroke:none;fill-rule:nonzero;fill:rgb(70.196078%,10.588235%,10.588235%);fill-opacity:1;" d="M 78.644531 25.351562 L 77.503906 22.535156 L 72.78125 24.210938 L 68.976562 13.628906 L 65.398438 14.84375 L 70.269531 28.398438 Z M 78.644531 25.351562 "/>
<path style=" stroke:none;fill-rule:nonzero;fill:rgb(70.196078%,10.588235%,10.588235%);fill-opacity:1;" d="M 93.261719 22.992188 C 93.566406 22.992188 93.796875 22.992188 94.097656 22.992188 C 96.078125 22.839844 97.601562 22.15625 98.4375 21.164062 C 99.277344 20.175781 99.582031 18.652344 99.429688 16.976562 L 98.742188 7.917969 L 95.089844 8.070312 L 95.773438 16.292969 C 95.925781 19.109375 94.785156 19.640625 93.796875 19.796875 C 93.640625 19.796875 93.640625 19.796875 93.492188 19.796875 C 92.652344 19.796875 91.511719 19.488281 91.128906 16.597656 L 90.445312 8.375 L 86.792969 8.679688 L 87.476562 17.738281 C 88.007812 21.164062 89.914062 22.992188 93.261719 22.992188 Z M 93.261719 22.992188 "/>
<path style=" stroke:none;fill-rule:nonzero;fill:rgb(70.196078%,10.588235%,10.588235%);fill-opacity:1;" d="M 109.78125 14.464844 L 112.828125 23.375 L 117.015625 24.058594 L 118.84375 9.59375 L 115.339844 9.136719 L 114.199219 17.664062 L 111.152344 8.601562 L 107.117188 8.144531 L 105.140625 22.382812 L 108.640625 22.839844 Z M 109.78125 14.464844 "/>
<path style=" stroke:none;fill-rule:nonzero;fill:rgb(70.196078%,10.588235%,10.588235%);fill-opacity:1;" d="M 129.730469 12.789062 L 126.226562 11.648438 L 121.890625 25.351562 L 125.390625 26.570312 Z M 129.730469 12.789062 "/>
<path style=" stroke:none;fill-rule:nonzero;fill:rgb(70.196078%,10.588235%,10.588235%);fill-opacity:1;" d="M 147.847656 20.859375 L 144.652344 19.1875 L 137.648438 26.34375 L 139.09375 16.519531 L 135.59375 14.617188 L 133.460938 29.921875 L 137.113281 31.59375 Z M 147.847656 20.859375 "/>
<path style=" stroke:none;fill-rule:nonzero;fill:rgb(70.196078%,10.588235%,10.588235%);fill-opacity:1;" d="M 151.503906 41.644531 L 153.332031 39.132812 L 149.371094 35.933594 L 151.046875 33.726562 L 154.703125 36.621094 L 156.679688 34.109375 L 153.027344 31.214844 L 154.394531 29.386719 L 158.355469 32.585938 L 160.410156 30.074219 L 153.332031 24.667969 L 144.5 36.085938 Z M 151.503906 41.644531 "/>
<path style=" stroke:none;fill-rule:nonzero;fill:rgb(70.196078%,10.588235%,10.588235%);fill-opacity:1;" d="M 157.515625 47.660156 L 161.703125 44.003906 L 161.859375 44.308594 C 162.390625 44.996094 162.390625 45.144531 162.011719 45.984375 L 159.648438 50.324219 L 162.3125 53.367188 L 165.132812 47.660156 C 165.28125 47.507812 165.4375 46.972656 165.4375 46.515625 C 166.578125 47.050781 168.101562 46.820312 169.320312 45.832031 C 172.515625 43.167969 170.003906 40.273438 168.175781 38.140625 L 165.816406 35.476562 L 154.929688 44.996094 Z M 166.121094 40.121094 L 166.273438 40.425781 C 166.804688 41.109375 167.265625 41.796875 167.265625 42.253906 C 167.265625 42.558594 167.109375 42.785156 166.730469 42.9375 C 166.578125 43.242188 166.199219 43.242188 166.046875 43.242188 C 165.359375 43.242188 164.675781 42.558594 164.371094 42.101562 L 164.21875 41.796875 Z M 166.121094 40.121094 "/>
<path style=" stroke:none;fill-rule:nonzero;fill:rgb(70.196078%,10.588235%,10.588235%);fill-opacity:1;" d="M 170.917969 59.230469 C 170.234375 59.765625 169.242188 58.925781 168.9375 58.242188 C 168.40625 57.40625 168.253906 56.566406 168.253906 55.421875 L 168.253906 54.585938 L 164.902344 56.109375 L 165.054688 56.796875 C 165.359375 57.9375 165.589844 58.621094 166.199219 59.839844 C 167.339844 61.820312 168.859375 62.886719 170.535156 62.886719 C 171.375 62.886719 172.058594 62.734375 172.898438 62.199219 C 175.410156 60.675781 175.105469 58.316406 174.722656 56.488281 C 174.570312 55.347656 174.421875 54.511719 174.875 54.128906 C 175.179688 53.976562 175.410156 53.976562 175.5625 53.976562 C 176.246094 53.976562 176.703125 54.664062 176.933594 54.816406 C 177.464844 55.5 177.617188 56.339844 177.769531 57.175781 L 177.921875 57.859375 L 180.96875 56.488281 L 180.96875 56.1875 C 180.8125 55.195312 180.28125 54.207031 179.597656 52.988281 C 178.074219 50.324219 175.410156 49.484375 173.046875 51.007812 C 170.535156 52.53125 170.84375 54.890625 171.222656 56.566406 C 171.449219 58.011719 171.601562 58.851562 170.917969 59.230469 Z M 170.917969 59.230469 "/>
<path style=" stroke:none;fill-rule:nonzero;fill:rgb(70.196078%,10.588235%,10.588235%);fill-opacity:1;" d="M 171.289062 68.933594 L 184.609375 63.5 L 185.992188 66.882812 L 172.667969 72.316406 Z M 171.289062 68.933594 "/>
<path style=" stroke:none;fill-rule:nonzero;fill:rgb(70.196078%,10.588235%,10.588235%);fill-opacity:1;" d="M 185.992188 77.121094 L 175.105469 79.785156 L 175.941406 83.289062 L 187.058594 80.625 L 187.894531 84.355469 L 190.863281 83.671875 L 188.199219 72.628906 L 185.15625 73.46875 Z M 185.992188 77.121094 "/>
<path style=" stroke:none;fill-rule:nonzero;fill:rgb(70.196078%,10.588235%,10.588235%);fill-opacity:1;" d="M 177.464844 93.871094 L 177.617188 97.601562 L 183.328125 97.21875 L 192.386719 101.941406 L 192.15625 97.90625 L 186.828125 95.394531 L 191.855469 92.195312 L 191.546875 87.859375 L 183.175781 93.71875 Z M 177.464844 93.871094 "/>
<path style=" stroke:none;fill-rule:nonzero;fill:rgb(70.196078%,10.588235%,10.588235%);fill-opacity:1;" d="M 18.195312 127.671875 L 21.242188 126.835938 L 20.023438 122.496094 L 22.230469 121.8125 L 23.523438 126.53125 L 26.570312 125.542969 L 24.210938 117.472656 L 10.355469 121.507812 L 11.34375 125.007812 L 17.054688 123.335938 Z M 18.195312 127.671875 "/>
<path style=" stroke:none;fill-rule:nonzero;fill:rgb(70.196078%,10.588235%,10.588235%);fill-opacity:1;" d="M 31.0625 139.78125 C 31.59375 138.105469 31.367188 136.277344 30.53125 134.449219 C 29.15625 131.785156 27.179688 130.414062 24.515625 130.414062 C 23.375 130.414062 22 130.71875 20.632812 131.40625 C 18.421875 132.394531 17.128906 133.917969 16.445312 135.746094 C 15.910156 137.417969 16.140625 139.246094 16.976562 141.074219 C 18.347656 143.585938 20.328125 145.109375 22.992188 145.109375 C 24.132812 145.109375 25.503906 144.804688 26.875 144.117188 C 29.082031 142.976562 30.605469 141.605469 31.0625 139.78125 Z M 25.429688 140.617188 C 24.589844 141.148438 23.601562 141.300781 22.765625 141.300781 C 21.390625 141.300781 20.554688 140.769531 20.097656 139.625 C 19.796875 138.789062 19.566406 138.105469 19.945312 137.417969 C 20.25 136.429688 21.316406 135.4375 22.609375 134.753906 C 23.449219 134.449219 24.285156 134.070312 25.125 134.070312 C 26.496094 134.070312 27.332031 134.601562 27.789062 135.746094 C 28.09375 136.582031 28.320312 137.265625 27.941406 137.953125 C 27.5625 138.941406 26.722656 139.933594 25.429688 140.617188 Z M 25.429688 140.617188 "/>
<path style=" stroke:none;fill-rule:nonzero;fill:rgb(70.196078%,10.588235%,10.588235%);fill-opacity:1;" d="M 41.109375 150.96875 L 34.5625 156.148438 C 32.890625 157.515625 31.519531 157.671875 30.53125 156.453125 C 30.222656 155.921875 29.996094 155.460938 29.996094 154.929688 C 30.148438 154.246094 30.679688 153.40625 31.671875 152.570312 L 38.21875 147.390625 L 35.859375 144.578125 L 28.625 150.285156 C 27.101562 151.425781 26.265625 152.796875 26.265625 154.320312 C 26.265625 155.691406 26.796875 156.984375 27.941406 158.507812 C 29.3125 160.335938 30.757812 161.171875 32.433594 161.171875 C 33.574219 161.171875 34.792969 160.640625 35.933594 159.648438 L 43.167969 153.789062 Z M 41.109375 150.96875 "/>
<path style=" stroke:none;fill-rule:nonzero;fill:rgb(70.196078%,10.588235%,10.588235%);fill-opacity:1;" d="M 53.367188 162.695312 L 48.039062 169.394531 L 50.019531 160.03125 L 46.820312 157.367188 L 37.609375 168.558594 L 40.5 170.917969 L 45.832031 164.21875 L 43.851562 173.582031 L 46.972656 176.246094 L 56.1875 165.054688 Z M 53.367188 162.695312 "/>
<path style=" stroke:none;fill-rule:nonzero;fill:rgb(70.196078%,10.588235%,10.588235%);fill-opacity:1;" d="M 64.105469 169.546875 L 60.449219 167.71875 L 53.902344 180.585938 L 57.554688 182.414062 C 59.382812 183.25 60.90625 183.78125 62.429688 183.78125 C 64.941406 183.78125 66.921875 182.414062 68.292969 179.75 C 70.421875 175.410156 68.976562 172.058594 64.105469 169.546875 Z M 64.789062 178.148438 C 64.105469 179.671875 62.808594 180.511719 61.285156 180.511719 C 60.601562 180.511719 60.144531 180.359375 59.460938 179.976562 L 58.621094 179.445312 L 62.277344 172.058594 L 63.113281 172.59375 C 64.105469 173.125 64.789062 173.964844 65.09375 174.800781 C 65.398438 175.941406 65.246094 176.933594 64.789062 178.148438 Z M 64.789062 178.148438 "/>
<path style=" stroke:none;fill-rule:nonzero;fill:rgb(70.196078%,10.588235%,10.588235%);fill-opacity:1;" d="M 72.097656 188.65625 L 80.699219 191.015625 L 81.539062 187.96875 L 76.515625 186.675781 L 77.121094 184.011719 L 81.84375 185.15625 L 82.679688 182.109375 L 77.960938 180.96875 L 78.492188 178.609375 L 83.671875 179.976562 L 84.355469 176.933594 L 75.828125 174.800781 Z M 72.097656 188.65625 "/>
<path style=" stroke:none;fill-rule:nonzero;fill:rgb(70.196078%,10.588235%,10.588235%);fill-opacity:1;" d="M 93.414062 178.148438 L 89.226562 178 L 88.390625 192.386719 L 92.578125 192.539062 C 92.882812 192.539062 93.261719 192.539062 93.566406 192.539062 C 98.4375 192.539062 100.953125 190.179688 101.257812 185.6875 C 101.40625 183.480469 100.953125 181.652344 99.734375 180.359375 C 98.4375 179.140625 96.382812 178.300781 93.414062 178.148438 Z M 93.261719 189.492188 L 92.273438 189.492188 L 92.804688 181.269531 L 93.796875 181.269531 C 95.773438 181.421875 97.679688 182.945312 97.449219 185.609375 C 97.21875 188.351562 95.242188 189.492188 93.261719 189.492188 Z M 93.261719 189.492188 "/>
<path style=" stroke:none;fill-rule:nonzero;fill:rgb(70.196078%,10.588235%,10.588235%);fill-opacity:1;" d="M 113.96875 176.933594 L 111.457031 192.15625 L 115.339844 191.320312 L 115.875 188.125 L 120.59375 187.132812 L 122.421875 189.949219 L 126.457031 189.113281 L 117.929688 176.246094 Z M 116.328125 185 L 116.863281 181.121094 L 118.84375 184.316406 Z M 116.328125 185 "/>
<path style=" stroke:none;fill-rule:nonzero;fill:rgb(70.196078%,10.588235%,10.588235%);fill-opacity:1;" d="M 127.75 184.46875 L 129.046875 187.96875 L 132.394531 186.675781 L 131.25 183.328125 Z M 127.75 184.46875 "/>
<path style=" stroke:none;fill-rule:nonzero;fill:rgb(70.196078%,10.588235%,10.588235%);fill-opacity:1;" d="M 134.753906 169.925781 L 131.101562 171.90625 L 137.953125 184.621094 L 141.605469 182.640625 C 146.480469 179.976562 147.621094 176.625 145.488281 172.4375 C 143.28125 168.101562 139.625 167.265625 134.753906 169.925781 Z M 140.617188 179.597656 L 139.78125 180.128906 L 135.894531 172.898438 L 136.734375 172.363281 C 137.265625 172.058594 137.875 171.832031 138.5625 171.832031 C 140.082031 171.832031 141.226562 172.667969 142.0625 174.039062 C 143.511719 176.476562 142.292969 178.609375 140.617188 179.597656 Z M 140.617188 179.597656 "/>
<path style=" stroke:none;fill-rule:nonzero;fill:rgb(70.196078%,10.588235%,10.588235%);fill-opacity:1;" d="M 148.304688 174.421875 L 150.359375 177.464844 L 153.332031 175.257812 L 151.351562 172.289062 Z M 148.304688 174.421875 "/>
<path style=" stroke:none;fill-rule:nonzero;fill:rgb(70.196078%,10.588235%,10.588235%);fill-opacity:1;" d="M 154.015625 155.84375 L 153.332031 161.554688 L 156.527344 162.011719 L 156.910156 159.726562 L 163.761719 166.578125 L 166.425781 164.066406 L 156.222656 153.636719 Z M 154.015625 155.84375 "/>
<path style=" stroke:none;fill-rule:nonzero;fill:rgb(70.196078%,10.588235%,10.588235%);fill-opacity:1;" d="M 173.65625 148.304688 C 172.515625 147.46875 171.144531 147.316406 169.625 147.773438 C 169.625 146.402344 168.9375 145.109375 167.949219 144.421875 C 166.121094 143.050781 163.761719 143.890625 161.933594 146.25 C 160.257812 148.609375 160.410156 150.96875 162.46875 152.417969 C 163.457031 153.101562 164.828125 153.253906 165.96875 152.949219 C 165.816406 154.472656 166.273438 155.613281 167.492188 156.453125 C 168.328125 157.136719 169.167969 157.289062 170.003906 157.289062 C 171.527344 157.289062 172.820312 156.453125 174.191406 154.777344 C 175.179688 153.40625 175.714844 152.113281 175.5625 150.742188 C 175.332031 149.980469 174.648438 149.144531 173.65625 148.304688 Z M 166.730469 149.296875 C 166.199219 149.601562 165.738281 149.980469 165.207031 149.980469 C 165.054688 149.980469 164.675781 149.980469 164.523438 149.828125 C 163.835938 149.296875 164.21875 148.457031 164.523438 148 C 164.675781 147.695312 165.054688 147.46875 165.359375 147.46875 C 165.511719 147.46875 165.890625 147.621094 166.199219 147.773438 C 166.730469 148.15625 166.957031 148.839844 166.730469 149.296875 Z M 171.753906 153.332031 C 171.222656 154.015625 170.382812 154.167969 169.777344 153.636719 C 169.242188 153.101562 168.9375 152.644531 169.089844 151.65625 C 170.078125 150.96875 170.917969 150.816406 171.601562 151.351562 C 171.90625 151.503906 172.136719 151.882812 172.136719 152.1875 C 172.136719 152.492188 171.984375 153.027344 171.753906 153.332031 Z M 171.753906 153.332031 "/>
<path style=" stroke:none;fill-rule:nonzero;fill:rgb(70.196078%,10.588235%,10.588235%);fill-opacity:1;" d="M 180.128906 134.222656 C 177.617188 133.078125 175.257812 133.6875 174.113281 136.046875 C 173.8125 136.734375 173.582031 137.417969 173.8125 138.027344 C 172.972656 137.34375 172.136719 136.203125 172.820312 134.679688 C 173.125 133.992188 173.65625 133.535156 174.191406 133.003906 L 174.722656 132.699219 L 172.058594 130.871094 L 171.753906 131.175781 C 171.070312 131.859375 170.382812 132.699219 169.925781 133.6875 C 169.242188 135.210938 169.089844 136.503906 169.625 137.875 C 170.460938 140.234375 172.820312 141.910156 174.648438 142.75 C 176.324219 143.585938 177.691406 143.890625 178.835938 143.890625 C 180.664062 143.890625 182.03125 143.050781 183.023438 141.226562 C 184.164062 138.257812 183.175781 135.746094 180.128906 134.222656 Z M 180.128906 139.625 C 179.976562 140.160156 179.445312 140.3125 178.988281 140.3125 C 178.683594 140.3125 178.148438 140.160156 177.84375 140.007812 C 177.160156 139.703125 176.703125 139.171875 176.476562 138.867188 C 176.324219 138.5625 176.476562 138.332031 176.476562 138.027344 C 176.625 137.496094 177.007812 137.34375 177.617188 137.34375 C 177.921875 137.34375 178.453125 137.496094 178.988281 137.648438 C 179.671875 137.953125 179.976562 138.332031 180.128906 138.789062 C 180.359375 139.09375 180.128906 139.398438 180.128906 139.625 Z M 180.128906 139.625 "/>
<path style=" stroke:none;fill-rule:nonzero;fill:rgb(70.196078%,10.588235%,10.588235%);fill-opacity:1;" d="M 185.382812 119.527344 C 182.566406 118.691406 180.203125 120.0625 179.367188 122.726562 C 179.367188 123.03125 179.214844 123.257812 179.214844 123.410156 L 177.542969 122.878906 L 179.0625 117.851562 L 176.246094 117.015625 L 173.734375 125.390625 L 181.804688 127.902344 L 181.804688 127.21875 C 181.804688 126.378906 181.957031 125.695312 182.109375 124.859375 C 182.261719 124.171875 183.097656 122.496094 184.621094 122.878906 C 186.296875 123.410156 185.992188 125.238281 185.765625 125.695312 C 185.457031 126.683594 184.925781 127.371094 184.390625 128.054688 L 183.859375 128.589844 L 187.210938 129.730469 L 187.363281 129.425781 C 187.894531 128.4375 188.351562 127.21875 188.734375 126.378906 C 189.265625 124.703125 189.265625 123.183594 188.578125 121.890625 C 187.894531 120.824219 186.675781 119.984375 185.382812 119.527344 Z M 185.382812 119.527344 "/>
<path style=" stroke:none;fill-rule:nonzero;fill:rgb(70.196078%,10.588235%,10.588235%);fill-opacity:1;" d="M 79.40625 84.507812 L 78.71875 84.125 C 74.609375 81.917969 67.757812 77.882812 67.757812 74.839844 L 67.757812 58.925781 L 91.511719 58.925781 L 91.511719 74.992188 C 91.511719 77.65625 85.269531 81.460938 80.09375 84.125 Z M 70.652344 69.203125 L 70.652344 74.839844 C 70.953125 75.828125 74.914062 78.71875 79.40625 81.15625 C 84.050781 78.71875 88.085938 75.90625 88.617188 74.839844 L 88.617188 69.203125 Z M 70.652344 66.3125 L 88.617188 66.3125 L 88.617188 61.820312 L 70.652344 61.820312 Z M 70.652344 66.3125 "/>
<path style=" stroke:none;fill-rule:nonzero;fill:rgb(70.196078%,10.588235%,10.588235%);fill-opacity:1;" d="M 99.960938 199.921875 C 44.84375 199.921875 0 155.082031 0 99.960938 C 0 44.84375 44.84375 0 99.960938 0 C 155.082031 0 199.921875 44.84375 199.921875 99.960938 C 199.921875 155.082031 155.082031 199.921875 99.960938 199.921875 Z M 99.960938 2.890625 C 46.441406 2.890625 2.890625 46.441406 2.890625 99.960938 C 2.890625 153.484375 46.441406 197.03125 99.960938 197.03125 C 153.484375 197.03125 197.03125 153.484375 197.03125 99.960938 C 197.03125 46.441406 153.484375 2.890625 99.960938 2.890625 Z M 99.960938 2.890625 "/>
<path style=" stroke:none;fill-rule:nonzero;fill:rgb(70.196078%,10.588235%,10.588235%);fill-opacity:1;" d="M 99.960938 172.972656 C 59.6875 172.972656 26.953125 140.234375 26.953125 99.960938 C 26.953125 59.6875 59.6875 26.953125 99.960938 26.953125 C 140.234375 26.953125 172.972656 59.6875 172.972656 99.960938 C 172.972656 140.234375 140.234375 172.972656 99.960938 172.972656 Z M 99.960938 29.84375 C 61.285156 29.84375 29.84375 61.285156 29.84375 99.960938 C 29.84375 138.636719 61.285156 170.078125 99.960938 170.078125 C 138.636719 170.078125 170.078125 138.636719 170.078125 99.960938 C 170.078125 61.285156 138.636719 29.84375 99.960938 29.84375 Z M 99.960938 29.84375 "/>
<path style=" stroke:none;fill-rule:nonzero;fill:rgb(70.196078%,10.588235%,10.588235%);fill-opacity:1;" d="M 120.363281 84.507812 L 119.679688 84.125 C 115.492188 81.917969 108.488281 77.882812 108.488281 74.839844 L 108.488281 58.925781 L 132.242188 58.925781 L 132.242188 74.992188 C 132.242188 77.121094 128.4375 80.167969 121.050781 84.125 Z M 111.382812 74.761719 C 111.761719 75.828125 115.796875 78.71875 120.363281 81.15625 C 124.859375 78.71875 128.816406 75.90625 129.347656 74.839844 L 129.347656 72.859375 L 120.363281 66.996094 L 111.382812 72.859375 Z M 129.347656 74.839844 Z M 120.363281 63.496094 L 129.347656 69.355469 L 129.347656 61.820312 L 111.457031 61.820312 L 111.457031 69.355469 Z M 120.363281 63.496094 "/>
<path style=" stroke:none;fill-rule:nonzero;fill:rgb(70.196078%,10.588235%,10.588235%);fill-opacity:1;" d="M 84.667969 108.265625 L 94.707031 107.808594 L 94.859375 111.15625 L 84.820312 111.613281 Z M 84.667969 108.265625 "/>
<path style=" stroke:none;fill-rule:nonzero;fill:rgb(70.196078%,10.588235%,10.588235%);fill-opacity:1;" d="M 84.667969 117.476562 L 94.707031 117.019531 L 94.859375 120.367188 L 84.816406 120.824219 Z M 84.667969 117.476562 "/>
<path style=" stroke:none;fill-rule:nonzero;fill:rgb(70.196078%,10.588235%,10.588235%);fill-opacity:1;" d="M 84.667969 126.6875 L 94.707031 126.234375 L 94.859375 129.578125 L 84.816406 130.035156 Z M 84.667969 126.6875 "/>
<path style=" stroke:none;fill-rule:nonzero;fill:rgb(70.196078%,10.588235%,10.588235%);fill-opacity:1;" d="M 73.316406 109.78125 L 78.875 109.78125 L 78.875 114.425781 L 73.316406 114.425781 Z M 73.316406 109.78125 "/>
<path style=" stroke:none;fill-rule:nonzero;fill:rgb(70.196078%,10.588235%,10.588235%);fill-opacity:1;" d="M 73.316406 123.03125 L 78.644531 123.03125 L 78.644531 127.671875 L 73.316406 127.671875 Z M 73.316406 123.03125 "/>
<path style=" stroke:none;fill-rule:nonzero;fill:rgb(70.196078%,10.588235%,10.588235%);fill-opacity:1;" d="M 98.59375 137.570312 C 98.515625 137.496094 96.613281 136.125 95.394531 136.277344 C 89.378906 137.265625 79.636719 137.039062 79.175781 137.039062 L 77.730469 137.039062 L 77.730469 100.953125 L 79.328125 101.105469 C 79.40625 101.105469 87.019531 101.941406 93.871094 100.722656 C 96.230469 100.113281 98.667969 100.722656 99.886719 101.179688 C 101.105469 100.796875 103.769531 100.113281 106.203125 100.722656 C 113.058594 101.941406 120.671875 101.105469 120.746094 101.105469 L 122.34375 100.953125 L 122.34375 137.039062 L 120.898438 137.039062 C 120.441406 137.039062 110.46875 137.265625 104.453125 136.277344 C 103.160156 136.046875 101.5625 137.265625 101.105469 137.570312 L 99.886719 138.40625 Z M 96.003906 133.308594 C 97.679688 133.234375 98.894531 134.070312 99.808594 134.679688 C 100.875 133.992188 103.007812 133.003906 105.0625 133.382812 C 109.480469 134.144531 116.484375 134.144531 119.527344 134.144531 L 119.527344 104.148438 C 116.785156 104.378906 111.152344 104.605469 105.75 103.617188 L 105.59375 103.617188 C 103.386719 103.007812 100.570312 103.996094 100.570312 103.996094 L 99.886719 104.148438 L 99.734375 104.148438 C 99.734375 104.148438 96.992188 103.007812 94.785156 103.617188 L 94.632812 103.617188 C 89.226562 104.605469 83.59375 104.378906 80.851562 104.148438 L 80.851562 134.144531 C 83.820312 134.144531 90.828125 134.144531 95.316406 133.382812 C 95.699219 133.308594 95.699219 133.308594 96.003906 133.308594 Z M 96.003906 133.308594 "/>
<path style=" stroke:none;fill-rule:nonzero;fill:rgb(70.196078%,10.588235%,10.588235%);fill-opacity:1;" d="M 105.296875 120.390625 L 105.449219 117.046875 L 115.488281 117.5 L 115.335938 120.847656 Z M 105.296875 120.390625 "/>
<path style=" stroke:none;fill-rule:nonzero;fill:rgb(70.196078%,10.588235%,10.588235%);fill-opacity:1;" d="M 105.296875 129.605469 L 105.449219 126.257812 L 115.488281 126.714844 L 115.335938 130.0625 Z M 105.296875 129.605469 "/>
<path style=" stroke:none;fill-rule:nonzero;fill:rgb(70.196078%,10.588235%,10.588235%);fill-opacity:1;" d="M 121.355469 109.78125 L 126.683594 109.78125 L 126.683594 114.425781 L 121.355469 114.425781 Z M 121.355469 109.78125 "/>
<path style=" stroke:none;fill-rule:nonzero;fill:rgb(70.196078%,10.588235%,10.588235%);fill-opacity:1;" d="M 121.355469 123.03125 L 126.683594 123.03125 L 126.683594 127.671875 L 121.355469 127.671875 Z M 121.355469 123.03125 "/>
<path style=" stroke:none;fill-rule:nonzero;fill:rgb(70.196078%,10.588235%,10.588235%);fill-opacity:1;" d="M 105.304688 111.371094 L 105.433594 108.019531 L 115.476562 108.402344 L 115.347656 111.75 Z M 105.304688 111.371094 "/>
<path style=" stroke:none;fill-rule:nonzero;fill:rgb(70.196078%,10.588235%,10.588235%);fill-opacity:1;" d="M 99.808594 166.578125 L 99.203125 166.347656 C 98.742188 166.121094 87.859375 161.25 76.742188 152.644531 C 61.820312 141.074219 53.75 128.4375 53.519531 115.949219 C 54.054688 89.304688 53.597656 53.828125 53.597656 53.445312 L 53.597656 52 L 146.480469 52 L 146.480469 53.445312 C 146.480469 53.828125 146.402344 89.761719 146.402344 115.949219 C 146.402344 128.4375 138.40625 141.074219 123.257812 152.644531 C 111.992188 161.25 100.875 166.199219 100.417969 166.347656 Z M 101.257812 91.128906 L 101.257812 162.621094 C 109.9375 158.355469 143.359375 140.3125 143.359375 115.796875 C 143.359375 108.03125 143.359375 99.351562 143.359375 91.054688 Z M 56.71875 91.128906 C 56.71875 99.429688 56.640625 108.03125 56.488281 115.875 C 56.796875 130.339844 68.671875 142.59375 78.570312 150.210938 C 86.640625 156.453125 94.707031 160.792969 98.363281 162.621094 L 98.363281 91.128906 C 98.363281 91.128906 56.71875 91.128906 56.71875 91.128906 Z M 56.71875 88.238281 L 143.433594 88.238281 C 143.433594 72.9375 143.511719 59.230469 143.511719 54.816406 L 56.488281 54.816406 C 56.566406 59.230469 56.71875 72.859375 56.71875 88.238281 Z M 56.71875 88.238281 "/>
</g>
</svg>
